<svg width="173" height="20" fill="none" xmlns="http://www.w3.org/2000/svg"><g clip-path="url(#clip0)" fill="#000"><path d="M6.293 9.123a.6.6 0 00-.242-.175.644.644 0 00-.589.06.574.574 0 00-.196.22l-5.2 9.688a.546.546 0 00.027.563.605.605 0 00.226.201.657.657 0 00.303.074h7.242a.633.633 0 00.328-.084.574.574 0 00.227-.237c1.563-3.007.616-7.58-2.126-10.31zM10.108.31a12.196 12.196 0 00-2.192 6.21 12.04 12.04 0 001.391 6.407l3.492 6.506c.051.096.13.177.229.234a.655.655 0 00.327.086h7.24a.66.66 0 00.303-.073.605.605 0 00.226-.201.551.551 0 00.027-.564S11.411.761 11.165.307a.563.563 0 00-.217-.224.62.62 0 00-.624.002.562.562 0 00-.216.226zm84.929 7.769c0 2.4 1.194 4.304 5.866 5.145 2.788.545 3.372.964 3.372 1.83 0 .84-.585 1.385-2.549 1.385a15.201 15.201 0 01-6.769-1.707v3.908c1.407.643 3.265 1.36 6.716 1.36 4.885 0 6.823-2.029 6.823-5.045l-13.46-6.876zm13.459 6.876c0-2.845-1.62-4.18-6.185-5.095-2.522-.52-3.133-1.039-3.133-1.781 0-.94.903-1.336 2.575-1.336 2.018 0 4.009.57 5.893 1.36V4.37a14.155 14.155 0 00-5.76-1.113c-4.513 0-6.85 1.83-6.85 4.823m62.753-4.576v16.25h3.716V7.362l1.567 3.29 5.256 9.102H173V3.504h-3.716V13.99l-1.407-3.042-4.221-7.445h-5.867zm-23.637 0h-4.062v16.25h4.062V3.504zm-8.748 11.451c0-2.845-1.619-4.18-6.185-5.095-2.522-.52-3.133-1.039-3.133-1.781 0-.94.903-1.336 2.575-1.336 2.018 0 4.009.57 5.893 1.36V4.37a14.155 14.155 0 00-5.76-1.113c-4.513 0-6.849 1.83-6.849 4.823 0 2.4 1.194 4.304 5.867 5.145 2.787.545 3.371.964 3.371 1.83 0 .84-.585 1.385-2.549 1.385a15.201 15.201 0 01-6.769-1.707v3.908c1.407.643 3.265 1.36 6.716 1.36 4.885 0 6.823-2.029 6.823-5.045zM63.484 3.504v16.25h8.349l1.314-3.512h-5.575V3.504h-4.088zm-16.494 0v3.512h4.513v12.738h4.088V7.016h4.832V3.504H46.99zm-5.927 0h-5.358l-6.082 16.25h4.645l.862-2.737c2.123.581 4.381.581 6.505 0l.862 2.737h4.645l-6.08-16.25zm-2.68 10.583a8.48 8.48 0 01-2.235-.3l2.236-7.091 2.235 7.094a8.48 8.48 0 01-2.235.297zM86.224 3.504h-5.357l-6.082 16.25h4.646l.862-2.737c2.123.581 4.381.581 6.505 0l.862 2.737h4.646l-6.082-16.25zm-2.678 10.583a8.48 8.48 0 01-2.236-.3l2.236-7.091 2.235 7.094a8.479 8.479 0 01-2.235.297zm65.241-10.583h-5.357l-6.082 16.25h4.645l.862-2.737c2.124.581 4.382.581 6.505 0l.863 2.737h4.645l-6.081-16.25zm-2.68 10.583c-.757 0-1.51-.101-2.236-.3l2.236-7.091 2.235 7.094a8.48 8.48 0 01-2.235.297z"/></g><defs><clipPath id="clip0"><path fill="#fff" d="M0 0h173v20H0z"/></clipPath></defs></svg>