<svg width="32" height="32" fill="none" xmlns="http://www.w3.org/2000/svg"><path d="M10.766 16.002a5.239 5.239 0 005.232 5.233 5.238 5.238 0 005.233-5.233 5.239 5.239 0 00-5.233-5.232 5.239 5.239 0 00-5.232 5.232z" fill="#000"/><path d="M28.05 9.094a.23.23 0 00-.003-.23 14.088 14.088 0 00-5.016-4.973A13.991 13.991 0 0016 2 13.94 13.94 0 005.054 7.27a.23.23 0 00-.02.259l3.942 6.827a.23.23 0 00.421-.058 6.818 6.818 0 017.215-5.087H27.85a.23.23 0 00.2-.117z" fill="#000"/><path d="M18.069 22.651a.229.229 0 00-.243-.08 6.807 6.807 0 01-1.826.248 6.853 6.853 0 01-6.184-3.946L4.193 9.134a.23.23 0 00-.198-.114h-.002a.23.23 0 00-.198.116A14.009 14.009 0 005.426 25.18a14 14 0 008.485 4.668.23.23 0 00.233-.112l3.942-6.83a.23.23 0 00-.017-.255z" fill="#000"/><path d="M28.823 10.742H20.93a.23.23 0 00-.161.394 6.765 6.765 0 012.048 4.866 6.77 6.77 0 01-1.228 3.9l-5.632 9.755a.23.23 0 00.198.345h.003a13.916 13.916 0 009.794-4.152A13.915 13.915 0 0030 16.002c0-1.765-.325-3.485-.964-5.114a.23.23 0 00-.214-.146z" fill="#000"/></svg>