<svg width="32" height="32" fill="none" xmlns="http://www.w3.org/2000/svg"><path d="M16.191 1.92c-6.086 0-11.264 3.635-13.389 9.325 1.735-1.907 4.032-2.925 6.7-2.925h.02c4.141.006 8.518 2.624 9.964 5.959h-.006c.518 1.01.398 2.054.231 2.713-.192.75-.48 1.1-.588 1.242l-.06.076a.646.646 0 00.072.877c.045.039.115.09.211.154l.166.103c.813.512 2.65 1.036 4.314 1.036 1.274 0 2.937-.198 4.499-1.766 2.624-2.624 1.612-6.285 1.241-7.348-.633-1.798-3.263-7.776-10.642-9.184a14.481 14.481 0 00-2.733-.262zM9.502 9.6c-3.328 0-5.996 1.863-7.532 5.255-.506 5.862 3.046 11.122 7.27 13.477.608.34 2.54 1.313 5.235 1.633-2.38-1.127-4.192-3.091-5.024-5.645-1.382-4.243.352-8.774 4.416-11.539l.007.006a3.91 3.91 0 012.131-.633c.09 0 .173 0 .262.012-1.798-1.536-4.345-2.56-6.745-2.566h-.02zm2.657 6.509c-1.78 2.284-2.362 5.12-1.485 7.815 1.158 3.558 4.544 5.81 8.672 5.823 3.213-.716 6.01-2.592 8.352-5.62l.057-.076a.654.654 0 00-.031-.775.652.652 0 00-.755-.179l-.308.142c-.128.057-.243.095-.384.146a10.2 10.2 0 00-.53.205c-.826.34-2.055.531-3.373.531-1.107 0-2.19-.14-3.04-.396-1.203-.359-4.872-1.466-6.785-5.69a4.651 4.651 0 01-.39-1.926z" fill="#000"/></svg>