<svg width="128" height="26" fill="none" xmlns="http://www.w3.org/2000/svg"><path fill-rule="evenodd" clip-rule="evenodd" d="M35.267 4.806a7.103 7.103 0 012.84 0l.04.014v16.018l-.04.013a7.102 7.102 0 01-2.84 0l-.04-.013v-6.5h-6.44v6.5l-.04.013c-.48.096-.946.15-1.427.15-.48 0-.946-.054-1.413-.15l-.04-.013V4.82l.04-.014a6.643 6.643 0 012.84 0l.04.014v6.964h6.44V4.82l.04-.014zm10.014 4.507c1.653 0 3.013.546 3.906 1.556 1.014 1.161 1.427 2.882 1.2 4.998v.055h-7.84c.027 2.157.947 3.195 2.8 3.195 1.333 0 2.24-.669 2.427-1.789v-.04h.04c.867-.124 1.6-.07 2.387.204l.04.014v.04c-.2 1.885-1.8 3.783-4.92 3.783-1.827 0-3.227-.587-4.147-1.72-.853-1.052-1.28-2.54-1.28-4.452 0-3.66 2.013-5.844 5.387-5.844zm-.054 2.075c-1.653 0-2.627 1.038-2.706 2.854h5.213c.04-.887-.173-1.625-.64-2.13-.44-.478-1.08-.724-1.867-.724zm7.08-6.582a5.865 5.865 0 012.667 0l.04.014v16.018l-.04.013c-.44.096-.893.15-1.333.15-.44 0-.894-.054-1.334-.15l-.04-.013V4.82l.04-.014zM62.72 9.313c3.2 0 5.027 2.198 5.027 6.022 0 3.741-1.84 5.98-4.92 5.98-1.106 0-2.093-.3-3.026-.9v5.338l-.04.014c-.44.096-.894.15-1.334.15-.44 0-.893-.054-1.333-.15l-.04-.014V9.818l.04-.014c.653-.205 1.2-.205 1.867 0l.026.014.16.847c1.16-.888 2.4-1.352 3.574-1.352zm-2.96 3.154v5.721c.787.56 1.56.833 2.374.833 1.906 0 2.92-1.27 2.92-3.645 0-2.431-1.027-3.756-2.894-3.756-.813 0-1.573.274-2.4.847zm19.72-.26c2.174.86 4.427 1.748 4.44 4.438-.026 4.056-3.76 4.67-6.026 4.67-2.307 0-4.107-.614-5.2-1.816-.813-.887-1.2-2.034-1.12-3.331v-.041l.04-.014a6.636 6.636 0 012.84-.041l.04.014v.04c-.08.724.093 1.311.507 1.776.56.628 1.546.97 2.84.97 1.173 0 2.053-.26 2.56-.793.346-.368.52-.846.506-1.447-.026-1.16-1.293-1.598-3.4-2.349-.426-.15-.92-.328-1.426-.519l-.24-.082c-1.547-.573-4.147-1.53-4.12-4.41.04-2.895 2.32-4.63 6.106-4.63h.067c2.04.014 3.653.588 4.653 1.68.814.874 1.213 2.048 1.147 3.387v.04l-.04.014c-1.013.232-1.947.26-2.867.069l-.04-.014v-.041c.053-.792-.133-1.434-.56-1.898-.493-.56-1.333-.847-2.413-.847-1.093 0-2 .3-2.52.86-.36.37-.534.847-.52 1.394.04 1.174 1.32 1.652 3.44 2.43.413.15.84.314 1.306.492zm11.28-.587c-1.92 0-2.813 1.175-2.813 3.687 0 2.513.894 3.687 2.814 3.687.493 0 2.146-.123 2.4-1.87v-.042h.04c.88-.163 1.706-.109 2.453.15l.04.014v.041a4.268 4.268 0 01-1.293 2.718c-.894.86-2.174 1.31-3.694 1.31-3.52 0-5.466-2.13-5.466-5.994 0-3.878 1.96-6.022 5.52-6.022 1.493 0 2.76.437 3.64 1.27.773.724 1.24 1.748 1.32 2.867v.041l-.04.014a5.59 5.59 0 01-2.48.15h-.04v-.04c-.094-.738-.52-1.98-2.4-1.98zm11.707-2.307c3.507 0 5.427 2.13 5.427 6.022 0 3.864-1.92 5.994-5.427 5.994-3.493 0-5.427-2.13-5.427-5.995 0-3.878 1.92-6.021 5.427-6.021zm2.787 6.008c0-2.485-.907-3.7-2.787-3.7-1.906 0-2.787 1.174-2.787 3.7 0 2.485.907 3.687 2.787 3.687s2.787-1.215 2.787-3.687zm11.413-5.503a5.197 5.197 0 012.667 0l.04.014v11.006l-.04.013a3.626 3.626 0 01-1.947 0l-.026-.013-.267-1.257c-1.253 1.188-2.413 1.72-3.76 1.72-2.494 0-3.933-1.556-3.933-4.287V9.832l.04-.014a5.505 5.505 0 012.666 0l.04.014v6.554c0 1.802.56 2.567 1.867 2.567.933 0 1.733-.355 2.613-1.133V9.832l.04-.014zm11.107 8.876c.2.778.2 1.53-.013 2.253l-.014.027h-.026c-.761.15-1.427.232-2.014.232-.946 0-1.666-.205-2.173-.628-.933-.792-1.013-2.185-1.013-3.55l-.027-4.902h-1.374l-.013-.041a5.074 5.074 0 010-2.28l.013-.042h1.374l-.027-3.031.04-.014a5.867 5.867 0 012.667 0l.04.014v3.031h2.173l.014.041a5.92 5.92 0 010 2.267l-.014.04h-2.173v5.108c0 .683.147 1.12.44 1.365.373.301.987.328 2.053.069l.054-.014.013.055zM8.93 7.665l-7.327 7.666C.687 14.373.115 13.055 0 11.498c0-1.437.687-2.874 1.603-3.833L9.045 0c.916.958 1.488 2.395 1.488 3.833 0 1.437-.686 2.874-1.602 3.832zm3.224 10.614l7.408-7.665c.926 1.078 1.505 2.395 1.505 3.832 0 1.438-.695 2.875-1.62 3.833l-7.409 7.666c-.926-.958-1.505-2.396-1.505-3.833 0-1.437.695-2.874 1.62-3.833zm-.182-10.614l2.188-2.24L19.57 0c.921.943 1.497 2.359 1.497 3.774s-.691 2.83-1.612 3.774l-5.295 5.424-2.188 2.241-3.108 3.184-2.187 2.24-5.18 5.308C.576 25 0 23.586 0 22.17s.69-2.83 1.612-3.774l5.18-5.307 2.072-2.24 3.108-3.185z" fill="#000"/></svg>