<svg width="91" height="24" fill="none" xmlns="http://www.w3.org/2000/svg"><path d="M88.23 4.184h.396c.19 0 .32-.03.39-.085a.276.276 0 00.102-.225.275.275 0 00-.05-.162.29.29 0 00-.138-.105c-.058-.025-.168-.036-.329-.036h-.371v.613zm-.328 1.148V3.294h.697c.237 0 .41.019.517.056.106.038.19.104.255.198a.52.52 0 01.094.297c0 .15-.053.279-.159.39a.629.629 0 01-.42.185.55.55 0 01.172.108c.08.08.18.215.298.404l.247.4H89.2l-.178-.321c-.142-.252-.255-.41-.339-.474a.41.41 0 00-.26-.072h-.193v.867h-.328zm.825-2.632c-.265 0-.523.068-.775.204a1.475 1.475 0 00-.588.587 1.602 1.602 0 00-.213.794c0 .274.07.536.208.787.14.25.334.446.585.586a1.567 1.567 0 001.565 0 1.48 1.48 0 00.583-.586c.136-.24.207-.51.208-.787 0-.275-.07-.54-.211-.794a1.461 1.461 0 00-.59-.587 1.607 1.607 0 00-.772-.204zm0-.313c.316 0 .626.082.927.245.298.16.543.403.704.701.17.305.253.622.253.952 0 .327-.082.641-.248.943a1.77 1.77 0 01-.699.703 1.896 1.896 0 01-1.876 0 1.778 1.778 0 01-.698-.703 1.927 1.927 0 01-.25-.943c0-.33.084-.647.254-.952.163-.297.408-.54.705-.7.302-.164.61-.246.928-.246z" fill="#000"/><path fill-rule="evenodd" clip-rule="evenodd" d="M10.7.042a8.964 8.964 0 00-2.8.551C4.4 2.063 1.968 5.27.866 9.118a15.443 15.443 0 00-.417 2.191c0 .024-.058.759.046.56.104-.174.15-.43.208-.63.533-1.806 1.183-3.451 2.18-5.013C5.27 2.692 9.106.418 13.162 1.678c.753.256 1.425.63 2.097 1.072.127.094 1.066.84.858.164-.174-.536-.614-.992-.997-1.353C13.83.438 12.274 0 10.7.04zm29.603 3.536c-.545 0-.961.187-1.252.572-.301.373-.44.933-.44 1.668v5.317c-.672-.746-1.367-1.283-2.074-1.645a5.095 5.095 0 00-1.542-.466 7.711 7.711 0 00-1.066-.07c-1.773 0-3.222.63-4.31 1.888-1.09 1.26-1.635 3.01-1.635 5.26 0 1.062.14 2.052.406 2.962.278.91.683 1.702 1.216 2.378a5.691 5.691 0 001.9 1.564c.73.36 1.519.547 2.376.547.383 0 .754-.036 1.113-.105.228-.036.453-.09.672-.163a5.707 5.707 0 001.518-.793c.476-.35.94-.804 1.426-1.352v.349c0 .665.163 1.167.475 1.528.313.35.73.537 1.217.537.475 0 .892-.175 1.205-.514.313-.35.463-.862.463-1.551V5.63c0-.664-.138-1.177-.428-1.527-.3-.35-.719-.525-1.24-.525zm43.737 0c-.545 0-.962.187-1.251.572-.29.373-.44.933-.44 1.668v5.317c-.673-.746-1.368-1.283-2.075-1.645a4.998 4.998 0 00-1.542-.466 7.714 7.714 0 00-1.066-.07c-1.772 0-3.21.63-4.311 1.888-1.089 1.26-1.634 3.01-1.634 5.26 0 1.062.139 2.052.417 2.962.278.91.672 1.702 1.205 2.378a5.687 5.687 0 001.901 1.564c.73.36 1.519.547 2.376.547.393 0 .764-.036 1.112-.105.233-.035.452-.093.672-.163a5.698 5.698 0 001.518-.793c.476-.35.951-.804 1.426-1.352v.349c0 .665.162 1.167.475 1.528.325.35.73.537 1.217.537.498 0 .903-.175 1.217-.514.313-.35.475-.862.475-1.551V5.63c0-.664-.15-1.177-.44-1.527-.301-.35-.707-.525-1.252-.525zm-74.254.97a2.956 2.956 0 00-2.698 4.3 2.92 2.92 0 003.952 1.296 2.957 2.957 0 001.287-3.976 2.938 2.938 0 00-1.048-1.163 2.914 2.914 0 00-1.493-.456zm40.38 4.36a8.155 8.155 0 00-2.828.512 6.105 6.105 0 00-2.225 1.494 6.552 6.552 0 00-1.38 2.343 9.065 9.065 0 00-.475 2.962c0 2.262.65 4.034 1.924 5.351 1.205 1.249 2.863 1.901 4.983 1.97.128.013.244.014.371.014 1.008 0 1.89-.13 2.666-.397.776-.269 1.413-.595 1.923-.992.522-.407.893-.827 1.148-1.26.255-.43.382-.815.382-1.13 0-.36-.115-.652-.336-.851-.23-.198-.533-.304-.892-.304-.348 0-.602.083-.788.234-.357.341-.72.676-1.09 1.003a9.843 9.843 0 01-.915.688 3.71 3.71 0 01-1.032.466 4.08 4.08 0 01-1.17.152c-.093 0-.186 0-.267-.012a3.164 3.164 0 01-1.483-.467c-.522-.314-.95-.78-1.263-1.387-.325-.63-.487-1.352-.499-2.168h7c.928 0 1.657-.14 2.179-.397.51-.28.765-.863.765-1.76 0-.98-.243-1.936-.742-2.88-.498-.934-1.251-1.703-2.248-2.299-.997-.594-2.203-.886-3.593-.886h-.116zm14.312 0c-1.031.011-1.982.186-2.827.512a6.264 6.264 0 00-2.238 1.494 6.695 6.695 0 00-1.366 2.343 9.057 9.057 0 00-.476 2.962c0 2.262.637 4.034 1.912 5.351 1.205 1.249 2.874 1.901 4.995 1.97.117.013.243.014.37.014.998 0 1.89-.13 2.666-.397.776-.269 1.414-.595 1.924-.992.51-.407.892-.827 1.147-1.26.255-.43.383-.815.383-1.13 0-.36-.117-.652-.348-.851-.22-.198-.521-.304-.892-.304-.337 0-.592.083-.777.234-.452.42-.81.758-1.089 1.003a10.01 10.01 0 01-.927.688 3.63 3.63 0 01-1.02.466 4.14 4.14 0 01-1.17.152c-.093 0-.186 0-.267-.012a3.168 3.168 0 01-1.484-.467c-.533-.314-.95-.78-1.274-1.387-.313-.63-.476-1.352-.487-2.168h6.987c.94 0 1.67-.14 2.18-.397.522-.28.776-.863.776-1.76 0-.98-.254-1.936-.753-2.88-.498-.934-1.24-1.703-2.249-2.299-.997-.594-2.19-.886-3.592-.886h-.104zm-48.674.023c-.521 0-.928.175-1.217.513-.301.326-.452.84-.452 1.527v10.39c0 .699.162 1.247.498 1.62.336.385.753.572 1.275.572.533 0 .961-.187 1.298-.547.336-.374.51-.911.51-1.645v-4.49c0-1.48.081-2.471.255-3.008.243-.676.638-1.2 1.159-1.585a2.93 2.93 0 011.739-.572c.972 0 1.633.315 1.958.944.324.63.487 1.539.487 2.73v5.98c0 .7.162 1.248.498 1.622.336.384.765.572 1.298.572.521 0 .95-.188 1.274-.561.325-.36.499-.91.499-1.632V14.68c0-.793-.035-1.447-.105-1.948-.07-.513-.22-.99-.463-1.434a3.894 3.894 0 00-1.657-1.75c-.742-.408-1.587-.617-2.527-.617-.973 0-1.83.198-2.584.583-.742.396-1.425 1.003-2.063 1.842v-.442c0-.42-.07-.782-.22-1.085a1.588 1.588 0 00-.614-.677 1.612 1.612 0 00-.846-.22zm34.35 2.484h.011c.927 0 1.68.303 2.248.91.58.605.904 1.527.997 2.763h-6.49c.128-1.212.475-2.134 1.043-2.752.568-.618 1.298-.921 2.19-.921h.001zm14.312 0h.012c.927 0 1.68.303 2.247.91.569.605.905 1.527.986 2.763h-6.478c.116-1.212.463-2.134 1.043-2.752.568-.618 1.298-.921 2.19-.921zm-29.516.21h.045c.614 0 1.182.186 1.692.548.533.361.951.886 1.264 1.574.301.688.463 1.516.463 2.472 0 1.026-.162 1.877-.464 2.553-.312.677-.73 1.178-1.251 1.504-.51.326-1.09.49-1.704.49h-.011a3.089 3.089 0 01-1.716-.512c-.532-.35-.938-.863-1.24-1.54-.3-.688-.451-1.515-.451-2.495 0-.921.14-1.738.417-2.426.29-.699.684-1.236 1.205-1.609.51-.385 1.101-.56 1.75-.56zm43.747 0h.035c.615 0 1.182.186 1.704.548.521.361.94.886 1.252 1.574.313.688.463 1.516.463 2.472 0 1.026-.15 1.877-.463 2.553-.313.677-.731 1.178-1.24 1.504a3.158 3.158 0 01-1.716.49h-.01a3.09 3.09 0 01-1.717-.512c-.52-.35-.938-.863-1.239-1.54-.301-.688-.452-1.515-.452-2.495 0-.921.138-1.737.428-2.426.278-.699.684-1.236 1.194-1.609.523-.385 1.101-.56 1.761-.56zm-66.926.116a6.138 6.138 0 01-3.176.874c-.243 0-.475-.01-.718-.034v8.582c0 .793.185 1.387.545 1.784.37.408.823.607 1.39.607.58 0 1.056-.199 1.414-.595.36-.397.545-.991.545-1.796v-9.421z" fill="#000"/></svg>