<svg width="130" height="32" fill="none" xmlns="http://www.w3.org/2000/svg"><path d="M28.495 0H4.243A4.025 4.025 0 00.2 4v24a4.024 4.024 0 004.044 4h24.252a4.02 4.02 0 004.044-3.995V4.001a4.02 4.02 0 00-4.038-4h-.006zM20.68 5.868a1.084 1.084 0 011.138-1.02c.55.03.99.47 1.02 1.02v14.26a1.08 1.08 0 01-2.158 0V5.868zm-5.398-.538a1.084 1.084 0 011.138-1.02c.55.03.989.47 1.02 1.02v15.465a1.084 1.084 0 01-1.138 1.02c-.55-.03-.99-.47-1.02-1.02V5.33zm-5.392.538a1.08 1.08 0 012.158 0v14.26a1.08 1.08 0 01-2.158 0V5.868zm-5.4 2.134a1.084 1.084 0 011.137-1.02c.55.03.99.47 1.02 1.02v9.59a1.084 1.084 0 01-1.137 1.02c-.55-.03-.99-.47-1.02-1.02v-9.59zM27.827 24.27c-.142.143-4.143 3.476-11.47 3.476-7.334 0-11.316-3.315-11.483-3.457a1.06 1.06 0 01-.124-1.496c.006-.006.006-.007.006-.013.39-.445 1.064-.5 1.515-.117.062.05 3.63 2.943 10.086 2.943 6.53 0 10.042-2.912 10.079-2.943a1.09 1.09 0 011.521.111 1.063 1.063 0 01-.105 1.49h-.025v.006zm.377-6.66a1.084 1.084 0 01-1.137 1.021c-.55-.03-.99-.47-1.02-1.02V8a1.084 1.084 0 011.137-1.02c.55.031.99.47 1.02 1.02v9.61zm16.856 3.018c0 .544-.44.983-.983.977a.979.979 0 01-.977-.977v-9.282c0-.544.439-.983.983-.977a.98.98 0 01.977.977v9.282zm12.688-9.273v8.478c0 1.15-.612 1.787-1.589 1.787h-.08c-.922 0-1.367-.532-1.756-1.317l-1.979-3.846-1.756-3.97.043 3.84.019 4.285a.976.976 0 01-.983.977.979.979 0 01-.977-.977v-8.471c0-1.052.612-1.787 1.675-1.787h.08c.99 0 1.398.531 1.794 1.317l1.948 3.809 1.67 3.704-.05-3.55-.013-4.285a.983.983 0 011.04-.928c.5.025.896.427.927.928v.006h-.013zm7.862 9.262a.973.973 0 01-.983.977.98.98 0 01-.977-.977v-8.404h-2.436a.913.913 0 01-.915-.915c0-.507.408-.915.915-.915h6.833c.507 0 .915.408.915.915a.913.913 0 01-.915.915H65.61v8.404zm5.903-.317v-8.712c0-.823.452-1.268 1.286-1.243h5.652c.501 0 .91.402.91.902v.025a.896.896 0 01-.867.922h-5.04v2.696h4.41a.877.877 0 110 1.756h-4.41v3.11h4.99a.897.897 0 01.91.897v.03a.896.896 0 01-.878.91h-5.751c-.791-.007-1.243-.464-1.212-1.293zm18.996.013a.952.952 0 01-.396 1.286c-.018.012-.043.018-.062.03-.488.26-1.1.087-1.379-.389l-2.176-4.038h-2.072l.019 3.426a.983.983 0 01-1.039.927.988.988 0 01-.927-.927v-9.04c0-.817.457-1.268 1.286-1.243h3.716c2.56 0 3.63 1.663 3.63 3.357a3.016 3.016 0 01-2.56 3.13l1.96 3.48zm-6.09-4.88h3.103c1.051 0 1.59-.673 1.59-1.632a1.501 1.501 0 00-1.608-1.607h-3.092v3.24h.006zm10.733 5.334c-1.18-1.052-1.713-2.696-1.713-4.762 0-2.065.52-3.722 1.682-4.761a4.51 4.51 0 013.117-1.07c1.243 0 2.201.285 2.919.897a4.061 4.061 0 011.354 2.201.954.954 0 01-.73 1.132.494.494 0 01-.093.012 1.075 1.075 0 01-1.193-.785 2.636 2.636 0 00-.742-1.12 2.253 2.253 0 00-1.565-.519 2.42 2.42 0 00-1.774.662c-.662.661-.953 1.836-.953 3.326s.266 2.653.953 3.309c.99.86 2.455.884 3.469.05.247-.236.445-.52.581-.836.204-.488.637-.847 1.175-.723a.92.92 0 01.742 1.076c-.006.03-.013.068-.025.099a3.98 3.98 0 01-1.428 2.028c-.81.55-1.775.822-2.746.785-1.428.013-2.337-.414-3.03-1.001zm9.563-4.783c0-3.518 1.441-5.812 4.854-5.812 3.407 0 4.835 2.22 4.835 5.812 0 3.593-1.477 5.807-4.835 5.807-3.426 0-4.854-2.183-4.854-5.807zm7.68 0c0-2.67-.977-3.976-2.857-3.976-1.88 0-2.814 1.305-2.814 3.976 0 2.672.953 3.97 2.814 3.97 1.861 0 2.857-1.298 2.857-3.97zm17.233 4.633a.972.972 0 01-.983.977.979.979 0 01-.977-.977v-4.205l.05-4.1-1.367 4.162-1.379 4.1a1.313 1.313 0 01-1.336 1.007 1.338 1.338 0 01-1.366-1.02l-1.41-4.08-1.305-4.1.05 4.031v4.205a.972.972 0 01-.983.977.979.979 0 01-.977-.977v-8.404c0-1.162.636-1.836 1.725-1.836 1.039 0 1.62.55 1.948 1.552l1.446 4.285.879 2.919.89-2.919 1.447-4.285c.315-1.002.89-1.552 1.929-1.552 1.101 0 1.713.662 1.713 1.836l.006 8.404z" fill="#000"/></svg>